<?xml version="1.0" encoding="UTF-8" standalone="no"?>
<svg
        xmlns="http://www.w3.org/2000/svg"
        width="751.46436"
        height="167.62849"
        overflow="hidden"
        version="1.1"
        id="svg48"
        style="overflow:hidden">
    <defs>
        <clipPath
                id="clip0">
            <rect
                    x="159"
                    y="275"
                    width="805"
                    height="209"
                    id="rect2"/>
        </clipPath>
        <clipPath
                id="clip1">
            <rect
                    x="160"
                    y="276"
                    width="158"
                    height="168"
                    id="rect5"/>
        </clipPath>
        <clipPath
                id="clip2">
            <rect
                    x="160"
                    y="276"
                    width="158"
                    height="168"
                    id="rect8"/>
        </clipPath>
        <clipPath
                id="clip3">
            <rect
                    x="160"
                    y="276"
                    width="158"
                    height="168"
                    id="rect11"/>
        </clipPath>
    </defs>
    <g
            clip-path="url(#clip0)"
            transform="translate(-160,-276.18633)">
        <g
                clip-path="url(#clip1)">
            <g
                    clip-path="url(#clip2)">
                <g
                        clip-path="url(#clip3)">
                    <path
                            d="m 149.421,197.801 c -2.044,-1.363 -9.345,-16.841 -10.513,-22.292 -1.363,-5.646 -1.655,-6.035 -7.398,-8.177 -1.752,-0.681 -4.77,-2.239 -6.619,-3.504 l -3.505,-2.336 -6.035,2.433 c -3.407,1.363 -8.469,2.726 -11.292,3.018 -2.92,0.389 -6.7162,1.071 -8.4684,1.655 -3.7963,1.168 -6.0352,-0.195 -6.0352,-3.602 0,-2.92 2.3362,-3.699 6.3272,-2.336 4.4774,1.655 17.9114,-1.168 21.7074,-4.478 0.195,-0.195 -0.779,-1.947 -2.141,-4.088 -6.522,-10.027 -6.912,-22 -0.974,-34.265 l 3.407,-7.301 -10.124,-9.734 C 90.3341,85.8563 86.2457,79.237 86.2457,68.14 86.3431,47.698 107.272,33.5833 126.74,40.884 c 5.646,2.0442 13.044,8.8582 15.77,14.4067 0.876,1.6548 1.849,3.115 2.044,3.115 0.292,0 2.142,-3.407 4.283,-7.4954 6.327,-12.6546 11.876,-16.1589 27.938,-17.8138 5.353,-0.4867 11.486,-1.2654 13.725,-1.5574 2.141,-0.2921 4.672,-0.1947 5.451,0.1946 1.947,1.1682 14.601,22.1942 16.159,26.964 2.531,7.5927 0.779,17.035 -4.673,26.0879 -1.168,1.8495 -2.044,3.6017 -2.044,3.8937 0,0.292 3.213,0.3893 7.204,0.0973 10.221,-0.6814 16.061,1.4602 22.973,8.4688 6.814,6.8136 9.247,13.5306 8.566,23.3626 -0.974,13.433 -9.735,23.557 -22.779,26.282 -5.353,1.071 -17.619,0.195 -32.512,-2.336 -4.575,-0.779 -8.761,-1.46 -9.442,-1.46 -0.682,0 -2.726,3.018 -4.673,6.814 -2.044,3.699 -5.646,8.663 -8.176,11 -4.868,4.575 -13.531,8.468 -18.885,8.468 -4.77,0 -5.841,1.169 -5.062,4.965 1.168,5.451 6.133,14.212 9.248,16.451 3.309,2.336 3.796,5.256 1.071,6.814 -2.239,1.168 -2.239,1.168 -3.505,0.195 z m 3.991,-42.345 c 3.894,-2.044 7.982,-6.229 10.221,-10.707 1.947,-3.797 1.752,-5.549 -0.584,-5.549 -0.681,0 -5.256,-0.876 -10.026,-2.044 -8.372,-1.947 -9.15,-2.239 -16.548,-8.761 -4.283,-3.699 -8.177,-6.717 -8.761,-6.717 -0.487,0 -1.947,2.239 -3.115,5.062 -1.655,3.894 -2.044,6.328 -1.752,11.195 0.486,8.079 3.991,13.336 11.486,17.132 4.575,2.336 6.23,2.726 10.805,2.336 3.018,-0.292 6.717,-1.168 8.274,-1.947 z m 68.822,-21.512 c 6.327,-2.629 11.194,-11.195 10.123,-17.814 -0.973,-5.743 -5.062,-11.584 -9.734,-13.823 -6.133,-2.92 -9.832,-2.628 -19.274,1.947 -11.973,5.743 -38.84,21.61 -38.548,22.778 0.39,0.974 26.088,5.841 38.645,7.204 11.195,1.265 15.381,1.168 18.788,-0.292 z m -65.512,-16.743 c 2.141,-1.46 3.894,-2.726 3.894,-2.921 0,-0.194 -2.239,-1.46 -4.965,-2.92 l -5.062,-2.531 0.584,3.797 c 0.39,2.044 0.682,4.477 0.682,5.451 0,2.141 0.292,2.141 4.867,-0.876 z M 137.253,93.7411 c -3.407,-30.1763 -5.159,-35.8221 -12.46,-40.3973 -4.38,-2.7255 -11.778,-2.9202 -17.035,-0.292 -7.592,3.6017 -11.5833,14.6988 -7.9816,22.1942 2.2386,4.7698 38.7426,40.592 39.2296,38.45 0.194,-0.876 -0.585,-9.831 -1.753,-19.9549 z m 34.654,14.2119 c 2.823,-1.557 5.452,-3.309 5.744,-3.796 0.292,-0.487 -6.133,-4.2833 -14.212,-8.3717 l -14.797,-7.398 0.682,4.6724 c 0.292,2.5309 0.584,6.0353 0.584,7.7873 0,3.018 0.487,3.504 6.619,6.619 3.602,1.85 7.301,3.407 8.372,3.505 0.973,0 4.185,-1.363 7.008,-3.018 z m 12.558,-7.301 c 0.876,-0.389 2.628,-2.7252 3.991,-5.3534 l 2.336,-4.7698 -19.274,-9.6369 -19.371,-9.7343 -2.239,4.6724 c -1.168,2.6283 -1.947,5.5486 -1.85,6.522 0.292,1.2655 5.452,4.4778 16.938,10.3183 17.911,9.1507 17.132,8.8587 19.469,7.9817 z m 11.194,-19.8575 2.92,-5.8406 -18.495,-9.2475 c -10.123,-5.0618 -18.884,-9.2476 -19.468,-9.2476 -0.487,0 -2.239,2.5309 -3.797,5.6459 l -2.823,5.5485 18.593,9.4423 c 10.318,5.1592 18.982,9.4422 19.371,9.4422 0.389,0.0974 2.044,-2.5309 3.699,-5.7432 z m 5.451,-11.1944 c 1.168,-2.8229 -0.681,-8.0795 -5.743,-16.5483 l -5.062,-8.5661 -8.761,0.6814 c -10.902,0.6814 -15.088,1.8495 -17.911,4.8671 l -2.239,2.4336 18.301,9.2475 c 10.123,5.0619 18.982,9.2476 19.663,9.2476 0.681,0.0973 1.46,-0.5841 1.752,-1.3628 z"
                            transform="matrix(-1,0,0,-1.00293,404.246,475.276)"
                            style="fill:#444444"/>
                    <path
                            d="m 118.821,72.6263 c 1.325,-2.5903 1.795,-4.5871 2.015,-8.5793 0.555,-10.0841 -2.858,-16.1384 -11.553,-20.4884 -5.104,-2.5531 -8.036,-2.8404 -14.1966,-1.3906 -4.4883,1.0562 -7.9372,3.2469 -10.9326,6.9444 -4.7869,5.9089 -5.5696,9.681 -2.0869,10.0574 3.9654,0.4285 15.1977,3.346 17.5995,4.5712 1.3696,0.6989 5.4766,3.7435 9.1266,6.7659 3.65,3.0225 7.01,5.4954 7.467,5.4954 0.458,0 1.609,-1.5192 2.561,-3.376 z"
                            transform="matrix(1,0,0,1.00293,160,276.186)"
                            style="fill:#ffc107"/>
                    <path
                            d="m 93.0803,87.7381 c -0.1796,-0.6189 -0.5218,-2.7892 -0.7604,-4.8229 -0.2386,-2.0337 -0.5496,-3.6975 -0.6911,-3.6975 -0.1416,0 -1.8698,1.0704 -3.8405,2.3789 -4.0547,2.6922 -4.0519,2.7011 1.8131,5.7105 3.6188,1.8568 3.9031,1.8921 3.4789,0.431 z"
                            transform="matrix(1,0,0,1.00293,160,276.186)"
                            style="fill:#ffc107"/>
                    <path
                            d="m 93.6524,123.305 c 3.1702,-7.168 3.0919,-7.42 -3.4937,-11.249 -7.3566,-4.276 -27.5535,-14.1895 -28.9102,-14.1895 -0.7184,0 -2.0037,0.9364 -2.8686,2.0899 -1.6945,2.2606 -4.5048,7.5626 -4.1701,7.8686 0.113,0.103 8.6825,4.423 19.0432,9.6 l 18.8377,9.412 z"
                            transform="matrix(1,0,0,1.00293,160,276.186)"
                            style="fill:#ffc107"/>
                    <path
                            d="m 62.4536,153.109 c 9.6576,-0.834 13.8745,-1.811 16.7249,-3.876 1.4118,-1.023 2.5669,-2.236 2.5669,-2.696 0,-1.085 -35.5134,-18.64 -37.0749,-18.327 -1.7749,0.356 -1.5108,5.133 0.5296,9.576 3.205,6.977 8.9171,16.03 10.0566,15.938 0.5983,-0.049 3.8369,-0.325 7.1969,-0.615 z"
                            transform="matrix(1,0,0,1.00293,160,276.186)"
                            style="fill:#ffc107"/>
                    <path
                            d="m 95.0594,108.067 c -0.2012,-0.836 -0.5666,-3.979 -0.8121,-6.985 -0.2455,-3.0072 -0.7713,-5.8724 -1.1684,-6.3684 -0.3972,-0.4962 -3.5668,-2.2932 -7.0436,-3.9934 l -6.3216,-3.0914 -2.6818,1.068 c -1.4749,0.5874 -4.3733,2.0729 -6.4407,3.3013 l -3.7589,2.2332 1.5083,1.1703 c 0.8294,0.6436 7.2629,4.0983 14.2964,7.6774 11.4518,5.827 12.75,6.348 12.4224,4.988 z"
                            transform="matrix(1,0,0,1.00293,160,276.186)"
                            style="fill:#ffffff"/>
                    <path
                            d="m 86.7618,136.848 c 1.4852,-2.61 2.7002,-5.068 2.7002,-5.463 0,-0.768 -35.3889,-18.728 -36.8997,-18.728 -0.7542,0 -6.1851,9.295 -6.1851,10.586 0,0.49 35.9974,18.333 37.0086,18.344 0.3717,0.004 1.891,-2.129 3.376,-4.739 z"
                            transform="matrix(1,0,0,1.00293,160,276.186)"
                            style="fill:#ffffff"/>
                    <path
                            d="m 133.985,146.098 c 8.793,-2.648 13.917,-14.056 10.096,-22.479 -0.933,-2.055 -5.787,-7.328 -17.188,-18.671 -8.738,-8.6942 -17.16,-16.7958 -18.716,-18.0039 l -2.827,-2.1964 0.465,5.434 c 1.69,19.7853 4.736,40.3583 6.766,45.6983 2.757,7.256 7.963,10.901 15.43,10.803 2.318,-0.03 5.006,-0.293 5.974,-0.585 z"
                            transform="matrix(1,0,0,1.00293,160,276.186)"
                            style="fill:#ffffff"/>
                    <path
                            d="M 34.2537,96.672 C 38.7629,95.1846 52.1697,88.2004 64.0613,81.1438 75.7159,74.2278 78.7682,72.1243 78.1056,71.4651 77.8085,71.1694 73.8534,70.1767 69.3164,69.2588 47.8627,64.9186 28.3895,62.8297 23.727,64.3684 14.8819,67.2876 9.78529,78.4511 13.5314,86.7009 c 3.9417,8.6805 12.3578,12.7299 20.7223,9.9711 z"
                            transform="matrix(1,0,0,1.00293,160,276.186)"
                            style="fill:#ffffff"/>
                </g>
            </g>
        </g>
        <text
                font-style="italic"
                font-weight="600"
                font-size="96"
                transform="translate(353.6,399)"
                style="font-style:italic;font-weight:600;font-size:96px;font-family:Poppins, Poppins_MSFontService, sans-serif;fill:#ffc107">
            Bee
            <tspan
                    x="180"
                    y="0"
                    style="fill:#444444">Happy
            </tspan>
            <tspan
                    x="502.33301"
                    y="0"
                    style="fill:#444444">®
            </tspan>
        </text>
    </g>
</svg>