<?xml version="1.0" encoding="UTF-8" standalone="no"?>
<svg
    xmlns="http://www.w3.org/2000/svg"
    width="162.31319pt"
    height="171.70114pt"
    viewBox="0 0 162.31319 171.70114"
    preserveAspectRatio="xMidYMid meet">
    <g
        transform="matrix(-0.1,0,0,-0.1,250.9132,203.92671)"
        style="fill:#444444;stroke:none">
        <path
            d="m 1535,2032 c -21,-14 -96,-173 -108,-229 -14,-58 -17,-62 -76,-84 -18,-7 -49,-23 -68,-36 l -36,-24 -62,25 c -35,14 -87,28 -116,31 -30,4 -69,11 -87,17 -39,12 -62,-2 -62,-37 0,-30 24,-38 65,-24 46,17 184,-12 223,-46 2,-2 -8,-20 -22,-42 -67,-103 -71,-226 -10,-352 l 35,-75 -104,-100 C 928,882 886,814 886,700 c 1,-210 216,-355 416,-280 58,21 134,91 162,148 9,17 19,32 21,32 3,0 22,-35 44,-77 65,-130 122,-166 287,-183 55,-5 118,-13 141,-16 22,-3 48,-2 56,2 20,12 150,228 166,277 26,78 8,175 -48,268 -12,19 -21,37 -21,40 0,3 33,4 74,1 105,-7 165,15 236,87 70,70 95,139 88,240 -10,138 -100,242 -234,270 -55,11 -181,2 -334,-24 -47,-8 -90,-15 -97,-15 -7,0 -28,31 -48,70 -21,38 -58,89 -84,113 -50,47 -139,87 -194,87 -49,0 -60,12 -52,51 12,56 63,146 95,169 34,24 39,54 11,70 -23,12 -23,12 -36,2 z m 41,-435 c 40,-21 82,-64 105,-110 20,-39 18,-57 -6,-57 -7,0 -54,-9 -103,-21 -86,-20 -94,-23 -170,-90 -44,-38 -84,-69 -90,-69 -5,0 -20,23 -32,52 -17,40 -21,65 -18,115 5,83 41,137 118,176 47,24 64,28 111,24 31,-3 69,-12 85,-20 z m 707,-221 c 65,-27 115,-115 104,-183 -10,-59 -52,-119 -100,-142 -63,-30 -101,-27 -198,20 -123,59 -399,222 -396,234 4,10 268,60 397,74 115,13 158,12 193,-3 z m -673,-172 c 22,-15 40,-28 40,-30 0,-2 -23,-15 -51,-30 l -52,-26 6,39 c 4,21 7,46 7,56 0,22 3,22 50,-9 z M 1410,963 c -35,-310 -53,-368 -128,-415 -45,-28 -121,-30 -175,-3 -78,37 -119,151 -82,228 23,49 398,417 403,395 2,-9 -6,-101 -18,-205 z m 356,146 c 29,-16 56,-34 59,-39 3,-5 -63,-44 -146,-86 l -152,-76 7,48 c 3,26 6,62 6,80 0,31 5,36 68,68 37,19 75,35 86,36 10,0 43,-14 72,-31 z m 129,-75 c 9,-4 27,-28 41,-55 l 24,-49 -198,-99 -199,-100 -23,48 c -12,27 -20,57 -19,67 3,13 56,46 174,106 184,94 176,91 200,82 z m 115,-204 30,-60 -190,-95 c -104,-52 -194,-95 -200,-95 -5,0 -23,26 -39,58 l -29,57 191,97 c 106,53 195,97 199,97 4,1 21,-26 38,-59 z m 56,-115 c 12,-29 -7,-83 -59,-170 l -52,-88 -90,7 c -112,7 -155,19 -184,50 l -23,25 188,95 c 104,52 195,95 202,95 7,1 15,-6 18,-14 z"/>
    </g>
    <path
        d="m 122.06355,74.608789 c 1.36219,-2.660962 1.84406,-4.712333 2.07031,-8.813453 0.57149,-10.359458 -2.93545,-16.578945 -11.86802,-21.047731 -5.24273,-2.622832 -8.25479,-2.917875 -14.583852,-1.428517 -4.610775,1.085002 -8.153775,3.33552 -11.230965,7.133933 -4.917615,6.070185 -5.72172,9.945308 -2.143943,10.331963 4.073745,0.440257 15.612608,3.437355 18.07988,4.696057 1.40719,0.7179 5.62631,3.84567 9.37582,6.950611 3.74951,3.10494 7.20161,5.645347 7.67132,5.645347 0.46971,0 1.65297,-1.56069 2.62945,-3.46821 z"
        style="fill:#ffc107;stroke-width:0.66061109"/>
    <path
            d="m 95.621236,90.133152 c -0.184568,-0.635835 -0.53613,-2.865397 -0.781253,-4.954582 -0.245115,-2.089186 -0.564622,-3.798511 -0.710017,-3.798511 -0.145395,0 -1.92075,1.099785 -3.94524,2.443966 -4.165411,2.765685 -4.162516,2.774812 1.862572,5.866365 3.717593,1.90755 4.00962,1.94373 3.573938,0.442762 z"
            style="fill:#ffc107;stroke-width:0.66061109"/>
    <path
            d="m 96.208876,126.67086 c 3.25671,-7.364 3.176355,-7.62273 -3.58905,-11.55578 -7.557398,-4.39347 -28.305654,-14.5773 -29.699409,-14.5773 -0.73802,0 -2.05846,0.96203 -2.94687,2.14698 -1.74074,2.32178 -4.62779,7.76914 -4.28399,8.08314 0.11619,0.10611 8.919575,4.54394 19.563088,9.86184 l 19.351846,9.66893 z"
            style="fill:#ffc107;stroke-width:0.66061109"/>
    <path
            d="m 64.158442,157.2877 c 9.921285,-0.85611 14.253293,-1.85986 17.181488,-3.98104 1.450268,-1.05056 2.636843,-2.2969 2.636843,-2.76963 0,-1.11492 -36.482776,-19.14905 -38.086836,-18.82703 -1.8234,0.36604 -1.55205,5.27293 0.54398,9.83655 3.29249,7.16865 9.16054,16.46871 10.33119,16.37355 0.61464,-0.0499 3.94164,-0.33455 7.393335,-0.6324 z"
            style="fill:#ffc107;stroke-width:0.66061109"/>
    <path
            d="m 97.654306,111.01667 c -0.206693,-0.85835 -0.582135,-4.08748 -0.834308,-7.17583 -0.252172,-3.08836 -0.792307,-6.032202 -1.200292,-6.541865 -0.407985,-0.509662 -3.66414,-2.35575 -7.235888,-4.102418 l -6.494093,-3.175762 -2.75499,1.097152 c -1.51524,0.603435 -4.492688,2.129573 -6.616538,3.391418 l -3.861555,2.294265 1.54941,1.20219 c 0.85218,0.661208 7.461211,4.21028 14.686741,7.88684 11.76441,5.98608 13.098053,6.52155 12.761513,5.12401 z"
            style="fill:#ffffff;stroke-width:0.66061109"/>
    <path
            d="m 89.130226,140.58395 c 1.525635,-2.68145 2.773882,-5.20726 2.773882,-5.61291 0,-0.78772 -36.354921,-19.23921 -37.906971,-19.23921 -0.77484,0 -6.35397,9.54934 -6.35397,10.87559 0,0.50392 36.980068,18.83362 38.018848,18.84459 0.381885,0.004 1.942575,-2.1866 3.468211,-4.86806 z"
            style="fill:#ffffff;stroke-width:0.66061109"/>
    <path
            d="m 137.64215,150.08644 c 9.03325,-2.71995 14.29697,-14.44011 10.37159,-23.0933 -0.9576,-2.11096 -5.94448,-7.52819 -17.65684,-19.18054 -8.97727,-8.931297 -17.62932,-17.254085 -19.22675,-18.495088 l -2.90444,-2.256367 0.47715,5.58225 c 1.73739,20.325935 4.86655,41.459705 6.95096,46.945415 2.8324,7.45425 8.18112,11.19923 15.85151,11.09863 2.38118,-0.0312 5.14275,-0.30168 6.13682,-0.601 z"
            style="fill:#ffffff;stroke-width:0.66061109"/>
    <path
            d="m 35.188697,99.310933 c 4.63233,-1.528013 18.40515,-8.702948 30.621275,-15.952119 11.972851,-7.10481 15.108413,-9.265687 14.427758,-9.94293 -0.305212,-0.303682 -4.368308,-1.323615 -9.0291,-2.266522 -22.039423,-4.458713 -42.044173,-6.604598 -46.833973,-5.023816 -9.08657,2.998838 -14.32223,14.467081 -10.47387,22.942044 4.04932,8.917523 12.69516,13.07774 21.28791,10.243343 z"
            style="fill:#ffffff;stroke-width:0.66061109"/>
</svg>