<?xml version="1.0" encoding="UTF-8" standalone="no"?>
<svg
	xmlns="http://www.w3.org/2000/svg"
	x="0px"
	y="0px"
	width="365.50101"
	height="365.5"
	viewBox="0 0 365.50101 365.5">
    <g
		transform="translate(-73.25,-73.25)">
		<path
			d="m 438.75,377.833 c 0,33.504 -27.413,60.917 -60.917,60.917 H 134.167 c -33.504,0 -60.917,-27.413 -60.917,-60.917 V 134.167 c 0,-33.504 27.412,-60.917 60.917,-60.917 h 243.667 c 33.504,0 60.917,27.412 60.917,60.917 z"
			style="fill:#ffc107"/>
		<path
			d="m 172.568,152.681 h 103.618 c 19.111,0 34.461,4.36 45.986,13.139 11.525,8.779 17.319,21.978 17.319,39.715 0,10.75 -2.628,19.947 -7.884,27.592 -5.256,7.644 -12.78,13.617 -22.574,17.797 v 0.597 c 13.139,2.807 23.113,9.018 29.861,18.633 6.748,9.675 10.152,21.738 10.152,36.311 0,8.361 -1.493,16.186 -4.479,23.411 -2.986,7.286 -7.645,13.557 -14.035,18.812 -6.391,5.255 -14.512,9.436 -24.486,12.542 -9.975,3.105 -21.799,4.657 -35.535,4.657 H 172.567 V 152.681 Z m 37.326,89.284 h 60.917 c 8.959,0 16.424,-2.508 22.396,-7.644 5.973,-5.136 8.958,-12.422 8.958,-21.978 0,-10.75 -2.688,-18.335 -8.062,-22.694 -5.375,-4.359 -13.14,-6.569 -23.293,-6.569 h -60.917 v 58.885 z m 0,93.466 h 65.993 c 11.348,0 20.187,-2.926 26.397,-8.839 6.271,-5.853 9.437,-14.214 9.437,-24.964 0,-10.571 -3.106,-18.633 -9.437,-24.366 -6.331,-5.734 -15.05,-8.481 -26.397,-8.481 h -65.993 z"
			style="fill:#ffffff"/>
	</g>
</svg>